<?xml version="1.0" encoding="iso-8859-1"?>
<!-- Generator: Adobe Illustrator 19.0.0, SVG Export Plug-In . SVG Version: 6.00 Build 0)  -->
<svg version="1.1" id="Layer_1" xmlns="http://www.w3.org/2000/svg" xmlns:xlink="http://www.w3.org/1999/xlink" x="0px" y="0px"
	 viewBox="0 0 511.995 511.995" style="enable-background:new 0 0 511.995 511.995;" xml:space="preserve">
<polygon style="fill:#C7B299;" points="504.338,319.881 8.993,319.881 8.993,7.453 416.217,7.453 504.338,103.585 "/>
<rect x="7.658" y="7.453" style="fill:#958573;" width="104.146" height="312.427"/>
<polygon style="fill:#D9392B;" points="215.34,268.816 254.991,263.152 249.327,302.804 90.718,461.414 56.73,427.425 "/>
<polygon style="fill:#8C180E;" points="215.34,268.816 254.991,263.152 249.327,302.804 220.091,332.04 186.103,298.052 "/>
<polygon style="fill:#FFFFFF;" points="271.003,135.648 256.097,135.648 256.097,122.282 220.438,79.004 199.452,79.004 
	199.452,64.097 227.469,64.097 271.003,116.932 "/>
<path d="M282.92,245.764l-10.54-10.54l-20.902,20.902l-39.653,5.664L46.189,427.425l44.528,44.528l165.635-165.636l5.665-39.652
	L282.92,245.764z M242.3,299.29L90.718,450.873L67.27,427.425l151.583-151.582l27.355-3.908L242.3,299.29z"/>
<g>
	<polygon style="fill:#FFFFFF;" points="288.282,240.131 277.85,229.484 291.58,216.031 336.591,216.258 336.591,167.448 
		256.097,167.448 256.097,143.598 271.003,143.598 271.003,152.542 351.497,152.542 351.497,231.24 297.634,230.968 	"/>
	
		<rect x="213.562" y="289.125" transform="matrix(-0.7071 -0.7071 0.7071 -0.7071 167.1902 663.5224)" style="fill:#FFFFFF;" width="14.906" height="16.019"/>
</g>
<polygon style="fill:#F7931E;" points="90.718,505.941 23.136,438.361 33.677,427.82 90.718,484.861 170.417,405.162 
	180.957,415.702 "/>
<polygon points="67.664,495.796 22.347,450.479 11.807,461.019 29.195,478.407 23.136,484.466 33.677,495.007 39.736,488.948 
	57.125,506.336 "/>
<rect x="9.633" y="493.052" transform="matrix(-0.7071 -0.7071 0.7071 -0.7071 -325.1358 867.4474)" style="fill:#D9392B;" width="14.906" height="16.019"/>
<rect x="88.93" y="413.747" transform="matrix(-0.7071 -0.7071 0.7071 -0.7071 -133.6905 788.1375)" style="fill:#FFFFFF;" width="14.906" height="16.019"/>
<rect x="319.699" y="184.342" style="fill:#F7931E;" width="64.594" height="14.906"/>
<polyline style="fill:#192B37;" points="416.091,7.453 416.091,103.848 504.536,103.848 "/>
<rect x="400.193" y="184.342" style="fill:#D9392B;" width="55.65" height="14.906"/>
<rect x="400.193" y="209.186" style="fill:#FFFFFF;" width="15.9" height="14.906"/>
<rect x="424.043" y="209.186" width="23.85" height="14.906"/>
<polygon style="fill:#F7931E;" points="198.459,224.092 80.202,224.092 80.202,191.298 95.108,191.298 95.108,209.186 
	183.552,209.186 183.552,191.298 198.459,191.298 "/>
<rect x="80.204" y="233.036" width="15.9" height="14.906"/>
<rect x="104.054" y="233.036" style="fill:#FFFFFF;" width="15.9" height="14.906"/>
<rect x="424.232" y="103.589" style="fill:#958573;" width="80.107" height="24.029"/>
<rect x="127.904" y="233.036" style="fill:#D9392B;" width="15.9" height="14.906"/>
<polygon style="fill:#FFFFFF;" points="95.22,168.231 95.22,78.995 167.652,78.995 167.652,103.848 182.559,103.848 182.559,78.995 
	191.91,78.995 191.91,64.088 80.314,64.088 80.314,183.137 199.921,183.137 199.921,168.231 "/>
<polygon style="fill:#F7931E;" points="193.858,157.01 167.652,130.697 167.652,111.798 182.559,111.798 182.559,124.539 
	204.42,146.493 "/>
<polygon style="fill:#D9392B;" points="229.116,124.952 218.585,114.402 276.948,56.147 295.847,56.147 295.847,71.054 
	283.114,71.054 "/>
<rect x="311.749" y="56.147" style="fill:#F7931E;" width="72.544" height="14.906"/>
<rect x="311.749" y="80.991" style="fill:#D9392B;" width="15.9" height="14.906"/>
<rect x="336.593" y="80.991" style="fill:#FFFFFF;" width="23.85" height="14.906"/>
<path d="M419.442,0H0.204v327.334h135.629v-14.906H15.111V14.906h393.031v96.891h88.743v200.63H264.009v14.906h247.782V98.299
	L419.442,0z M423.048,25.609l66.968,71.282h-66.968V25.609z"/>
<g>
</g>
<g>
</g>
<g>
</g>
<g>
</g>
<g>
</g>
<g>
</g>
<g>
</g>
<g>
</g>
<g>
</g>
<g>
</g>
<g>
</g>
<g>
</g>
<g>
</g>
<g>
</g>
<g>
</g>
</svg>
